<svg width="28" height="28" viewBox="0 0 28 28" fill="none" xmlns="http://www.w3.org/2000/svg">
<circle cx="14" cy="14" r="13.3" stroke="#232323" stroke-width="1.4"/>
<mask id="path-2-inside-1_2435_17" fill="white">
<path d="M8.54785 9.94434C8.54785 9.39205 8.99557 8.94434 9.54785 8.94434H18.4569C19.0092 8.94434 19.4569 9.39205 19.4569 9.94434V17.5443C19.4569 19.2012 18.1138 20.5443 16.4569 20.5443H11.5479C9.891 20.5443 8.54785 19.2012 8.54785 17.5443V9.94434Z"/>
</mask>
<path d="M8.54785 9.94434C8.54785 9.39205 8.99557 8.94434 9.54785 8.94434H18.4569C19.0092 8.94434 19.4569 9.39205 19.4569 9.94434V17.5443C19.4569 19.2012 18.1138 20.5443 16.4569 20.5443H11.5479C9.891 20.5443 8.54785 19.2012 8.54785 17.5443V9.94434Z" stroke="#232323" stroke-width="2.8" mask="url(#path-2-inside-1_2435_17)"/>
<path d="M8 9.64014H20" stroke="#232323" stroke-width="1.4" stroke-linecap="round"/>
<path d="M16.502 9V8C16.502 7.44772 16.0542 7 15.502 7H14.002H12.502C11.9497 7 11.502 7.44772 11.502 8V9" stroke="#232323" stroke-width="1.4"/>
</svg>
